<?xml version="1.0" encoding="UTF-8" standalone="no"?>
<svg
   viewBox="0 0 400 400"
   width="400"
   height="400"
   version="1.1"
   id="svg98"
   sodipodi:docname="VoxRefiner_path_Logo.svg"
   inkscape:version="1.2.2 (b0a8486541, 2022-12-01)"
   inkscape:export-filename="VoxRefiner_path_Logo.png"
   inkscape:export-xdpi="491.51999"
   inkscape:export-ydpi="491.51999"
   xmlns:inkscape="http://www.inkscape.org/namespaces/inkscape"
   xmlns:sodipodi="http://sodipodi.sourceforge.net/DTD/sodipodi-0.dtd"
   xmlns="http://www.w3.org/2000/svg"
   xmlns:svg="http://www.w3.org/2000/svg">
  <sodipodi:namedview
     id="namedview100"
     pagecolor="#ffffff"
     bordercolor="#000000"
     borderopacity="0.25"
     inkscape:showpageshadow="2"
     inkscape:pageopacity="0.0"
     inkscape:pagecheckerboard="0"
     inkscape:deskcolor="#d1d1d1"
     showgrid="false"
     inkscape:zoom="1.668772"
     inkscape:cx="207.63771"
     inkscape:cy="242.39381"
     inkscape:window-width="1280"
     inkscape:window-height="1341"
     inkscape:window-x="1280"
     inkscape:window-y="32"
     inkscape:window-maximized="1"
     inkscape:current-layer="svg98" />
  <defs
     id="defs45">
    <linearGradient
       id="greenGrad"
       x1="0%"
       y1="0%"
       x2="100%"
       y2="0%">
      <stop
         offset="0%"
         style="stop-color:#00FF88;stop-opacity:1"
         id="stop2" />
      <stop
         offset="100%"
         style="stop-color:#00CC66;stop-opacity:1"
         id="stop4" />
    </linearGradient>
    <linearGradient
       id="morphGrad"
       x1="0%"
       y1="0%"
       x2="100%"
       y2="0%">
      <stop
         offset="0%"
         style="stop-color:#00FF88;stop-opacity:1"
         id="stop7" />
      <stop
         offset="50%"
         style="stop-color:#00EE77;stop-opacity:1"
         id="stop9" />
      <stop
         offset="100%"
         style="stop-color:#00CC66;stop-opacity:1"
         id="stop11" />
    </linearGradient>
    <filter
       id="glow"
       x="-0.055384615"
       y="-0.049315068"
       width="1.1107692"
       height="1.0986301">
      <feGaussianBlur
         stdDeviation="3"
         result="coloredBlur"
         id="feGaussianBlur14" />
      <feMerge
         id="feMerge20">
        <feMergeNode
           in="coloredBlur"
           id="feMergeNode16" />
        <feMergeNode
           in="SourceGraphic"
           id="feMergeNode18" />
      </feMerge>
    </filter>
    <filter
       id="subtleglow"
       x="-0.04556962"
       y="-0.041860465"
       width="1.0911392"
       height="1.0837209">
      <feGaussianBlur
         stdDeviation="1.5"
         result="coloredBlur"
         id="feGaussianBlur23" />
      <feMerge
         id="feMerge29">
        <feMergeNode
           in="coloredBlur"
           id="feMergeNode25" />
        <feMergeNode
           in="SourceGraphic"
           id="feMergeNode27" />
      </feMerge>
    </filter>
    <filter
       id="textglow"
       x="-0.0052679671"
       y="-0.048387097"
       width="1.0105359"
       height="1.0967742">
      <feGaussianBlur
         stdDeviation="0.75"
         result="blur"
         id="feGaussianBlur32" />
      <feComponentTransfer
         in="blur"
         result="softGlow"
         id="feComponentTransfer36">
        <feFuncA
           type="linear"
           slope="0.45"
           id="feFuncA34" />
      </feComponentTransfer>
      <feMerge
         id="feMerge42">
        <feMergeNode
           in="softGlow"
           id="feMergeNode38" />
        <feMergeNode
           in="SourceGraphic"
           id="feMergeNode40" />
      </feMerge>
    </filter>
  </defs>
  <!-- Background carré -->
  <rect
     width="400"
     height="400"
     rx="72"
     fill="#080808"
     id="rect47" />
  <!-- Dot grid -->
  <pattern
     id="dots"
     width="18"
     height="18"
     patternUnits="userSpaceOnUse">
    <circle
       cx="9"
       cy="9"
       r="0.7"
       fill="#181818"
       id="circle49" />
  </pattern>
  <rect
     width="400"
     height="400"
     rx="72"
     fill="url(#dots)"
     id="rect52" />
  <!-- ===================== -->
  <!-- ICON: wave → text     -->
  <!-- Centré sur y=148      -->
  <!-- ===================== -->
  <!-- === LEFT: onde sonore chaotique === -->
  <g
     filter="url(#glow)"
     id="g70">
    <rect
       x="30"
       y="108"
       width="11"
       height="80"
       rx="5.5"
       fill="url(#morphGrad)"
       id="rect54" />
    <rect
       x="47"
       y="90"
       width="11"
       height="116"
       rx="5.5"
       fill="url(#morphGrad)"
       id="rect56" />
    <rect
       x="64"
       y="123"
       width="11"
       height="50"
       rx="5.5"
       fill="url(#morphGrad)"
       id="rect58" />
    <rect
       x="81"
       y="75"
       width="11"
       height="146"
       rx="5.5"
       fill="url(#morphGrad)"
       id="rect60" />
    <rect
       x="98"
       y="103"
       width="11"
       height="90"
       rx="5.5"
       fill="url(#morphGrad)"
       id="rect62" />
    <rect
       x="115"
       y="83"
       width="11"
       height="130"
       rx="5.5"
       fill="url(#morphGrad)"
       id="rect64" />
    <rect
       x="132"
       y="115"
       width="11"
       height="66"
       rx="5.5"
       fill="url(#morphGrad)"
       id="rect66" />
    <rect
       x="149"
       y="93"
       width="11"
       height="110"
       rx="5.5"
       fill="url(#morphGrad)"
       id="rect68" />
  </g>
  <!-- === TRANSITION === -->
  <g
     filter="url(#subtleglow)"
     id="g82">
    <rect
       x="168"
       y="100"
       width="11"
       height="96"
       rx="5.5"
       fill="url(#morphGrad)"
       opacity="0.95"
       id="rect72" />
    <rect
       x="185"
       y="111"
       width="11"
       height="74"
       rx="5.5"
       fill="url(#morphGrad)"
       opacity="0.88"
       id="rect74" />
    <rect
       x="202"
       y="125"
       width="11"
       height="46"
       rx="5.5"
       fill="url(#morphGrad)"
       opacity="0.80"
       id="rect76" />
    <rect
       x="219"
       y="135"
       width="11"
       height="26"
       rx="5.5"
       fill="url(#morphGrad)"
       opacity="0.72"
       id="rect78" />
    <rect
       x="236"
       y="142"
       width="11"
       height="12"
       rx="5.5"
       fill="url(#morphGrad)"
       opacity="0.65"
       id="rect80" />
  </g>
  <!-- === RIGHT: lignes de texte propres === -->
  <g
     filter="url(#subtleglow)"
     id="g92">
    <rect
       x="258"
       y="111"
       width="112"
       height="11"
       rx="5.5"
       fill="url(#morphGrad)"
       opacity="0.95"
       id="rect84" />
    <rect
       x="258"
       y="136"
       width="112"
       height="11"
       rx="5.5"
       fill="url(#morphGrad)"
       opacity="0.85"
       id="rect86" />
    <rect
       x="258"
       y="161"
       width="112"
       height="11"
       rx="5.5"
       fill="url(#morphGrad)"
       opacity="0.75"
       id="rect88" />
    <rect
       x="258"
       y="186"
       width="70"
       height="11"
       rx="5.5"
       fill="url(#morphGrad)"
       opacity="0.50"
       id="rect90" />
  </g>
  <!-- Séparateur pointillé discret -->
  <line
     x1="250"
     y1="68"
     x2="250"
     y2="218"
     stroke="#00FF88"
     stroke-width="1"
     opacity="0.10"
     stroke-dasharray="4 5"
     id="line94" />
  <!-- ===================== -->
  <!-- WORDMARK pleine largeur -->
  <!-- ===================== -->
  <g
     aria-label="VoxRefiner"
     id="text96"
     style="font-weight:bold;font-size:48px;font-family:'Noto Sans';-inkscape-font-specification:'Noto Sans, Bold';font-variant-ligatures:no-common-ligatures;letter-spacing:9;text-anchor:middle;fill:url(#greenGrad);filter:url(#textglow)">
    <path
       d="M 63.8521,265.728 52.1881,300 h -7.92 l -11.616,-34.272 h 7.344 l 6.432,20.4 q 0.192,0.528 0.528,1.968 0.384,1.392 0.768,2.976 0.384,1.536 0.528,2.592 0.144,-1.056 0.48,-2.592 0.384,-1.584 0.768,-2.976 0.384,-1.44 0.528,-1.968 l 6.48,-20.4 z"
       id="path415" />
    <path
       d="m 99.444059,286.848 q 0,6.528 -3.456,10.08 -3.408,3.552 -9.312,3.552 -3.648,0 -6.528,-1.584 -2.832,-1.584 -4.464,-4.608 -1.632,-3.072 -1.632,-7.44 0,-6.528 3.408,-10.032 3.408,-3.504 9.36,-3.504 3.696,0 6.528,1.584 2.832,1.584 4.464,4.608 1.632,2.976 1.632,7.344 z m -18.096,0 q 0,3.888 1.248,5.904 1.296,1.968 4.176,1.968 2.832,0 4.08,-1.968 1.296,-2.016 1.296,-5.904 0,-3.888 -1.296,-5.808 -1.248,-1.968 -4.128,-1.968 -2.832,0 -4.128,1.968 -1.248,1.92 -1.248,5.808 z"
       id="path417" />
    <path
       d="m 118.76401,286.608 -8.448,-12.816 h 8.112 l 5.088,8.352 5.136,-8.352 h 8.112 l -8.544,12.816 8.928,13.392 h -8.112 l -5.52,-8.976 -5.52,8.976 h -8.112 z"
       id="path419" />
    <path
       d="m 160.69197,265.728 q 7.008,0 10.32,2.544 3.36,2.544 3.36,7.728 0,2.352 -0.912,4.128 -0.864,1.728 -2.352,2.976 -1.44,1.2 -3.12,1.968 l 10.08,14.928 h -8.064 l -8.16,-13.152 h -3.888 V 300 h -7.248 v -34.272 z m -0.528,5.952 h -2.208 v 9.264 h 2.352 q 3.6,0 5.136,-1.2 1.584,-1.2 1.584,-3.552 0,-2.448 -1.68,-3.456 -1.632,-1.056 -5.184,-1.056 z"
       id="path421" />
    <path
       d="m 201.61196,273.312 q 5.424,0 8.592,3.12 3.168,3.072 3.168,8.784 v 3.456 h -16.896 q 0.096,3.024 1.776,4.752 1.728,1.728 4.752,1.728 2.544,0 4.608,-0.48 2.064,-0.528 4.272,-1.584 v 5.52 q -1.92,0.96 -4.08,1.392 -2.112,0.48 -5.136,0.48 -3.936,0 -6.96,-1.44 -3.024,-1.488 -4.752,-4.464 -1.728,-2.976 -1.728,-7.488 0,-4.608 1.536,-7.632 1.584,-3.072 4.368,-4.608 2.784,-1.536 6.48,-1.536 z m 0.048,5.088 q -2.064,0 -3.456,1.344 -1.344,1.344 -1.584,4.176 h 10.032 q -0.048,-2.4 -1.248,-3.936 -1.2,-1.584 -3.744,-1.584 z"
       id="path423" />
    <path
       d="m 242.67594,279.168 h -6.192 V 300 h -7.152 v -20.832 h -3.936 v -3.456 l 3.936,-1.92 v -1.92 q 0,-3.36 1.104,-5.184 1.152,-1.872 3.216,-2.64 2.112,-0.768 4.944,-0.768 2.112,0 3.792,0.336 1.728,0.336 2.784,0.768 l -1.824,5.232 q -0.816,-0.24 -1.776,-0.432 -0.96,-0.24 -2.208,-0.24 -1.488,0 -2.208,0.912 -0.672,0.912 -0.672,2.304 v 1.632 h 6.192 z"
       id="path425" />
    <path
       d="m 259.3559,263.52 q 1.584,0 2.736,0.768 1.152,0.72 1.152,2.736 0,1.968 -1.152,2.736 -1.152,0.768 -2.736,0.768 -1.632,0 -2.784,-0.768 -1.104,-0.768 -1.104,-2.736 0,-2.016 1.104,-2.736 1.152,-0.768 2.784,-0.768 z m 3.552,10.272 V 300 h -7.152 v -26.208 z"
       id="path427" />
    <path
       d="m 294.27592,273.312 q 4.224,0 6.768,2.304 2.544,2.256 2.544,7.296 V 300 h -7.152 v -15.312 q 0,-2.832 -1.008,-4.224 -1.008,-1.44 -3.216,-1.44 -3.264,0 -4.464,2.256 -1.2,2.208 -1.2,6.384 V 300 h -7.152 v -26.208 h 5.472 l 0.96,3.36 h 0.384 q 1.248,-2.016 3.408,-2.928 2.208,-0.912 4.656,-0.912 z"
       id="path429" />
    <path
       d="m 330.7319,273.312 q 5.424,0 8.592,3.12 3.168,3.072 3.168,8.784 v 3.456 h -16.896 q 0.096,3.024 1.776,4.752 1.728,1.728 4.752,1.728 2.544,0 4.608,-0.48 2.064,-0.528 4.272,-1.584 v 5.52 q -1.92,0.96 -4.08,1.392 -2.112,0.48 -5.136,0.48 -3.936,0 -6.96,-1.44 -3.024,-1.488 -4.752,-4.464 -1.728,-2.976 -1.728,-7.488 0,-4.608 1.536,-7.632 1.584,-3.072 4.368,-4.608 2.784,-1.536 6.48,-1.536 z m 0.048,5.088 q -2.064,0 -3.456,1.344 -1.344,1.344 -1.584,4.176 h 10.032 q -0.048,-2.4 -1.248,-3.936 -1.2,-1.584 -3.744,-1.584 z"
       id="path431" />
    <path
       d="m 371.93988,273.312 q 0.528,0 1.248,0.048 0.72,0.048 1.152,0.144 l -0.528,6.72 q -0.336,-0.096 -1.008,-0.144 -0.624,-0.096 -1.104,-0.096 -1.824,0 -3.504,0.672 -1.68,0.624 -2.736,2.064 -1.008,1.44 -1.008,3.936 V 300 h -7.152 v -26.208 h 5.424 l 1.056,4.416 h 0.336 q 1.152,-2.016 3.168,-3.456 2.016,-1.44 4.656,-1.44 z"
       id="path433" />
  </g>
</svg>
